<?xml version="1.0" encoding="UTF-8"?>
<svg id="Layer_1" xmlns="http://www.w3.org/2000/svg" viewBox="0 0 28.4 26.79">
  <path d="M21.37,24.77c-3.66,2.71-10.93,2.69-14.19.01.03-.11.03-.25.08-.36,1.54-2.71,3.09-5.42,4.72-8.27,1.45.62,2.9.77,4.38-.07,1.69,2.93,3.33,5.77,5.01,8.68Z"/>
  <path d="M7.18.04c1.6,2.78,3.21,5.58,4.88,8.48-1.17.98-2.04,2.12-2.14,3.64-.95.27-7.64.36-9.71.14C-.92,9.24,2.88,1.62,7.18.04Z"/>
  <path d="M21.3,0c4.37,2.05,7.57,8.21,7.04,12.3h-9.72c-.25-1.49-.8-2.8-2.25-3.69,1.65-2.88,3.27-5.71,4.93-8.61Z"/>
  <path d="M14.21,15.27c-1.53,0-2.84-1.31-2.88-2.86-.04-1.61,1.28-2.97,2.89-2.97,1.65,0,2.95,1.3,2.93,2.93-.02,1.64-1.31,2.91-2.94,2.9Z"/>
</svg>